<svg width="35" height="35" viewBox="0 0 35 35" fill="none" xmlns="http://www.w3.org/2000/svg">
<path d="M17.2333 3.44666C16.2049 3.44666 15.2187 3.85518 14.4915 4.58235C13.7643 5.30952 13.3558 6.29578 13.3558 7.32416C13.3558 8.35253 13.7643 9.33879 14.4915 10.066C15.2187 10.7931 16.2049 11.2017 17.2333 11.2017C18.2617 11.2017 19.2479 10.7931 19.9751 10.066C20.7023 9.33879 21.1108 8.35253 21.1108 7.32416C21.1108 6.29578 20.7023 5.30952 19.9751 4.58235C19.2479 3.85518 18.2617 3.44666 17.2333 3.44666ZM8.35469 8.31852C7.73972 8.08633 7.05771 8.10795 6.45868 8.37862C5.85965 8.64929 5.39268 9.14684 5.16049 9.76181C4.92831 10.3768 4.94993 11.0588 5.2206 11.6578C5.49127 12.2569 5.98882 12.7238 6.60379 12.956L12.0633 15.0585V19.1945L9.10607 27.3458C8.88561 27.9988 8.92869 28.7121 9.22614 29.3337C9.52358 29.9554 10.0519 30.4365 10.6987 30.6746C11.3455 30.9126 12.0596 30.8888 12.6891 30.6083C13.3186 30.3278 13.8138 29.8127 14.0693 29.1726L16.6749 22.2103C16.7188 22.0967 16.796 21.999 16.8965 21.9302C16.9969 21.8613 17.1158 21.8244 17.2376 21.8244C17.3594 21.8244 17.4783 21.8613 17.5788 21.9302C17.6792 21.999 17.7564 22.0967 17.8003 22.2103L20.4094 29.1295C20.6594 29.7744 21.1529 30.2951 21.7835 30.5793C22.414 30.8635 23.131 30.8884 23.7797 30.6486C24.4284 30.4088 24.9569 29.9236 25.251 29.2977C25.5452 28.6717 25.5814 27.9552 25.3519 27.3028L22.4033 19.1755V15.0533L27.8215 12.9974C28.4362 12.7684 28.9348 12.3046 29.2076 11.708C29.4803 11.1114 29.5049 10.4308 29.276 9.8161C29.047 9.20136 28.5832 8.70276 27.9866 8.42999C27.39 8.15722 26.7094 8.13262 26.0947 8.3616L22.7376 9.59034C22.5379 9.66329 22.3721 9.80753 22.2723 9.99532C21.7862 10.9137 21.0585 11.6817 20.1676 12.2166C19.2768 12.7514 18.2568 13.0327 17.2177 13.03C16.1787 13.0273 15.1601 12.7408 14.2721 12.2015C13.384 11.6621 12.6602 10.8903 12.1788 9.96947C12.0796 9.78039 11.9138 9.63484 11.7135 9.56104L8.35469 8.32024V8.31852Z" fill="white"/>
</svg>
