<svg width="20" height="18" viewBox="0 0 20 18" fill="none" xmlns="http://www.w3.org/2000/svg">
<path opacity="0.4" d="M19.9999 12.9402C19.9999 15.7302 17.7599 17.9902 14.9699 18.0002H14.9599H5.04988C2.26988 18.0002 -0.00012207 15.7502 -0.00012207 12.9602V12.9502C-0.00012207 12.9502 0.00587793 8.52424 0.0138779 6.29824C0.0148779 5.88024 0.494878 5.64624 0.821878 5.90624C3.19788 7.79124 7.44688 11.2282 7.49988 11.2732C8.20988 11.8422 9.10988 12.1632 10.0299 12.1632C10.9499 12.1632 11.8499 11.8422 12.5599 11.2622C12.6129 11.2272 16.7669 7.89324 19.1789 5.97724C19.5069 5.71624 19.9889 5.95024 19.9899 6.36724C19.9999 8.57624 19.9999 12.9402 19.9999 12.9402Z" fill="#979797"/>
<path d="M19.476 2.67363C18.61 1.04163 16.906 -0.000366211 15.03 -0.000366211H5.05001C3.17401 -0.000366211 1.47001 1.04163 0.604006 2.67363C0.410006 3.03863 0.502006 3.49363 0.825006 3.75163L8.25001 9.69063C8.77001 10.1106 9.40001 10.3196 10.03 10.3196C10.034 10.3196 10.037 10.3196 10.04 10.3196C10.043 10.3196 10.047 10.3196 10.05 10.3196C10.68 10.3196 11.31 10.1106 11.83 9.69063L19.255 3.75163C19.578 3.49363 19.67 3.03863 19.476 2.67363Z" fill="#979797"/>
</svg>
