<svg width="21" height="21" viewBox="0 0 21 21" fill="none" xmlns="http://www.w3.org/2000/svg">
<path fill-rule="evenodd" clip-rule="evenodd" d="M6.08602 0.499023H14.756C18.146 0.499023 20.416 2.87902 20.416 6.41902V14.59C20.416 18.12 18.146 20.499 14.756 20.499H6.08602C2.69602 20.499 0.416016 18.12 0.416016 14.59V6.41902C0.416016 2.87902 2.69602 0.499023 6.08602 0.499023ZM13.426 13.499C13.766 13.16 13.766 12.61 13.426 12.27L11.646 10.49L13.426 8.70902C13.766 8.37002 13.766 7.81002 13.426 7.47002C13.086 7.12902 12.536 7.12902 12.186 7.47002L10.416 9.24902L8.63602 7.47002C8.28602 7.12902 7.73602 7.12902 7.39602 7.47002C7.05602 7.81002 7.05602 8.37002 7.39602 8.70902L9.17602 10.49L7.39602 12.26C7.05602 12.61 7.05602 13.16 7.39602 13.499C7.56602 13.669 7.79602 13.76 8.01602 13.76C8.24602 13.76 8.46602 13.669 8.63602 13.499L10.416 11.73L12.196 13.499C12.366 13.68 12.586 13.76 12.806 13.76C13.036 13.76 13.256 13.669 13.426 13.499Z" fill="#DB3B0F"/>
</svg>
