<svg width="120" height="91" viewBox="0 0 120 91" fill="none" xmlns="http://www.w3.org/2000/svg">
  <path d="M43.3874 32.7272C42.6519 32.7345 41.9888 32.9048 41.3945 33.2381C40.8075 33.5715 40.3365 34.0281 39.9886 34.5969C39.6335 35.1695 39.456 35.8108 39.4487 36.5283C39.456 37.2312 39.6335 37.8653 39.9886 38.4306C40.3365 38.9959 40.8075 39.4415 41.3945 39.7749C41.9888 40.1083 42.6519 40.2786 43.3874 40.2858C44.0904 40.2786 44.739 40.1083 45.3296 39.7749C45.9166 39.4452 46.3804 38.9959 46.7355 38.4306C47.0906 37.8653 47.2791 37.2312 47.2863 36.5283C47.2791 35.8072 47.0906 35.1695 46.7355 34.5969C46.3804 34.0244 45.9166 33.5679 45.3296 33.2381C44.7426 32.9048 44.0904 32.7345 43.3874 32.7272Z" fill="#58595B"/>
  <path d="M76.2125 30.0386C75.0059 30.0386 73.9007 29.2342 73.5746 28.0131C70.0453 14.8055 58.0734 5.53305 44.4636 5.46058C44.4129 5.46058 44.3585 5.46058 44.3041 5.46058C31.0277 5.46058 19.1065 14.3526 15.2765 27.1362C14.8453 28.582 13.3198 29.4045 11.8776 28.9697C10.4319 28.5385 9.61298 27.013 10.0442 25.5709C14.5626 10.4936 28.6362 0 44.3041 0C44.3657 0 44.4273 0 44.4889 0C60.5554 0.08334 74.6834 11.0262 78.8504 26.6036C79.2381 28.0602 78.3757 29.5567 76.9191 29.948C76.6872 30.006 76.448 30.0386 76.2125 30.0386Z" fill="#F44C7F"/>
  <path d="M67.7627 41.1482C67.6613 41.1482 67.5598 41.1409 67.4584 41.1301C65.9583 40.9634 64.8785 39.6154 65.0451 38.1153C66.0054 29.4407 61.4072 20.9944 53.6022 17.1028C45.761 13.193 36.224 14.6243 29.872 20.6683C28.7778 21.7082 27.0494 21.6647 26.013 20.5704C24.9731 19.4762 25.0166 17.7478 26.1109 16.7114C34.126 9.09127 46.1523 7.28678 56.0444 12.2183C65.8894 17.1281 71.6906 27.7775 70.4804 38.7204C70.3173 40.1119 69.136 41.1446 67.7627 41.1482Z" fill="#FF6C0E"/>
  <path d="M56.4066 45.7066C55.9536 45.7066 55.4898 45.5942 55.0659 45.3551C53.7505 44.6123 53.2867 42.9491 54.0296 41.6338C56.1892 37.8037 56.0261 33.0208 53.6129 29.4444C50.9895 25.5564 46.2681 23.6722 41.5865 24.6505C40.1082 24.9585 38.6624 24.0092 38.3544 22.5344C38.0464 21.0597 38.9957 19.6103 40.4705 19.3023C47.3334 17.871 54.2687 20.6502 58.1386 26.3862C61.7005 31.662 61.9541 38.7024 58.7836 44.3151C58.2871 45.2065 57.3632 45.7066 56.4066 45.7066Z" fill="#FFB600"/>
  <path d="M0 48.2719C0 46.5761 0.880505 45.6304 2.57629 45.6304H14.6425C19.0414 45.6304 21.2408 46.0072 23.125 46.8261C27.6508 48.7103 30.6039 52.9824 30.6039 59.0155C30.6039 64.2949 27.8392 69.3207 23.1902 71.2049V71.3317C23.1902 71.3317 23.7555 72.0238 24.636 73.658L31.9881 87.1047C33.057 88.9273 32.2381 90.2462 30.1654 90.2462H26.7739C25.3281 90.2462 24.386 89.681 23.6939 88.4236L15.8382 73.5927H8.04774V87.6047C8.04774 89.3657 7.16723 90.2462 5.47145 90.2462H2.57991C0.884127 90.2462 0.00362149 89.3657 0.00362149 87.6047V48.2719H0ZM15.3309 66.556C19.6646 66.556 22.3677 63.8528 22.3677 59.4539C22.3677 56.6276 21.2988 54.3666 18.8493 53.3592C17.7804 52.8556 16.3999 52.6056 14.012 52.6056H8.0405V66.556H15.3309V66.556Z" fill="#DA3E26"/>
  <path d="M39.333 48.2719C39.333 46.5761 40.2135 45.6304 41.9093 45.6304H44.8008C46.4966 45.6304 47.3771 46.5725 47.3771 48.2719V87.6047C47.3771 89.3657 46.4966 90.2462 44.8008 90.2462H41.9093C40.2135 90.2462 39.333 89.3657 39.333 87.6047V48.2719Z" fill="#DA3E26"/>
  <path d="M55.7329 82.829L57.1171 80.8179C58.1208 79.4374 59.1897 79.3722 60.7623 80.2527C62.2081 81.2564 65.4112 83.5211 69.8101 83.5211C73.959 83.5211 76.4701 81.4484 76.4701 78.4301C76.4701 69.9475 55.6713 71.7085 55.6713 57.8197C55.6713 49.964 62.2081 44.873 70.6906 44.873C75.97 44.873 80.3037 46.8841 82.1879 48.2682C83.5721 49.2719 83.7605 50.4677 83.0068 51.8519L81.8763 53.9245C80.9342 55.7471 79.6152 55.4971 78.2963 54.805C76.4737 53.7361 74.0242 52.3555 70.5674 52.3555C66.4222 52.3555 63.7806 54.3666 63.7806 57.3813C63.7806 65.737 84.5794 63.6028 84.5794 77.8032C84.5794 85.032 79.1768 90.9999 69.8137 90.9999C63.469 90.9999 58.3164 88.1736 56.117 86.4742C55.106 85.5937 54.4755 84.5284 55.7329 82.829Z" fill="#DA3E26"/>
  <path d="M92.1777 48.2719C92.1777 46.5761 93.0582 45.6304 94.754 45.6304H116.245C117.941 45.6304 118.886 46.5725 118.886 48.2719V50.0329C118.886 51.7287 117.944 52.6092 116.245 52.6092H100.222V64.2949H112.665C114.361 64.2949 115.303 65.1754 115.303 66.8712V68.6322C115.303 70.3932 114.361 71.2701 112.665 71.2701H100.222V83.2747H117.252C118.948 83.2747 119.894 84.1552 119.894 85.851V87.612C119.894 89.373 118.952 90.2535 117.252 90.2535H94.7576C93.0619 90.2535 92.1814 89.373 92.1814 87.612V48.2719H92.1777Z" fill="#DA3E26"/>
</svg>











