<svg width="47" height="46" viewBox="0 0 47 46" fill="none" xmlns="http://www.w3.org/2000/svg">
<path d="M23.5039 40.3288C18.6864 40.3288 18.1185 40.3039 16.2385 40.2234C14.7724 40.1762 13.3253 39.8845 11.9595 39.3609C9.59643 38.4608 7.72785 36.6313 6.80911 34.3181C6.29467 32.9765 6.0172 31.559 5.98857 30.1264C5.87891 28.2902 5.87891 27.6884 5.87891 23.0098C5.87891 18.2813 5.90436 17.7293 5.98857 15.8989C6.01783 14.4682 6.29529 13.0527 6.80911 11.7129C7.72685 9.3967 9.59847 7.5656 11.9654 6.66827C13.3336 6.16265 14.7802 5.89038 16.2424 5.86327C18.1126 5.75977 18.7275 5.75977 23.5039 5.75977C28.3606 5.75977 28.9187 5.78468 30.7693 5.86327C32.2353 5.89061 33.6858 6.16286 35.0581 6.66827C37.4243 7.56661 39.2956 9.39736 40.2144 11.7129C40.7375 13.0722 41.0164 14.5098 41.0388 15.9622C41.1485 17.7983 41.1485 18.3983 41.1485 23.0749C41.1485 27.7516 41.1211 28.3649 41.0388 30.18C41.0097 31.6141 40.7315 33.0328 40.2163 34.3756C39.2952 36.6904 37.4239 38.5205 35.0581 39.4203C33.6877 39.9228 32.2402 40.1943 30.7772 40.2234C28.9069 40.3288 28.294 40.3288 23.5039 40.3288ZM23.4373 8.79385C18.6472 8.79385 18.1498 8.81685 16.2796 8.89927C15.1633 8.91374 14.0578 9.11535 13.0112 9.49535C11.4655 10.0742 10.2425 11.2663 9.64478 12.7767C9.25353 13.8123 9.0475 14.9061 9.03574 16.0101C8.93195 17.8673 8.93195 18.3542 8.93195 23.0098C8.93195 27.6098 8.94957 28.1675 9.03574 30.0133C9.05327 31.1062 9.25918 32.1883 9.64478 33.2141C10.2434 34.7235 11.4662 35.9147 13.0112 36.4935C14.0571 36.876 15.1631 37.0777 16.2796 37.0896C18.1753 37.1969 18.6747 37.1969 23.4373 37.1969C28.2411 37.1969 28.7385 37.1739 30.5931 37.0896C31.7101 37.0763 32.8164 36.8747 33.8635 36.4935C35.3997 35.9097 36.6148 34.7212 37.2122 33.2179C37.6027 32.1815 37.8087 31.0872 37.8213 29.9826H37.8428C37.927 28.1503 37.927 27.6615 37.927 22.9791C37.927 18.2967 37.9055 17.8041 37.8213 15.9737C37.8037 14.882 37.5978 13.8012 37.2122 12.7767C36.6162 11.2713 35.4009 10.0805 33.8635 9.49535C32.8167 9.11344 31.7102 8.91176 30.5931 8.89927C28.6994 8.79385 28.2039 8.79385 23.4373 8.79385ZM23.5039 31.8629C19.8418 31.8652 16.5389 29.708 15.1357 26.3974C13.7324 23.0868 14.5052 19.2748 17.0936 16.7393C19.6819 14.2038 23.5761 13.4442 26.9599 14.8147C30.3437 16.1853 32.5506 19.416 32.5514 23.0002C32.546 27.8897 28.4997 31.8533 23.5039 31.8629ZM23.5039 17.2463C20.2592 17.2463 17.6289 19.8207 17.6289 22.9963C17.6289 26.172 20.2592 28.7463 23.5039 28.7463C26.7486 28.7463 29.3789 26.172 29.3789 22.9963C29.3714 19.8238 26.7454 17.2537 23.5039 17.2463ZM32.9039 15.8798C31.7395 15.8755 30.7985 14.9494 30.8007 13.8098C30.8028 12.6702 31.7473 11.7474 32.9117 11.7474C34.0761 11.7474 35.0207 12.6702 35.0228 13.8098C35.0233 14.3596 34.8001 14.887 34.4025 15.2754C34.0049 15.6638 33.4657 15.8813 32.9039 15.8798Z" fill="black"/>
</svg>
