<svg width="1216" height="1146" viewBox="0 0 1216 1146" fill="none" xmlns="http://www.w3.org/2000/svg">
<rect width="1216" height="1146" fill="white"/>
<path d="M733.888 170.125C722.264 177.936 706.42 177.322 695.362 167.682C575.818 63.3194 400.437 51.5173 268.866 138.963C268.355 139.3 267.843 139.644 267.341 139.982C139.463 225.952 82.2131 388.83 128.088 536.79C133.267 553.505 123.929 571.293 107.199 576.459C90.4761 581.641 72.7101 572.295 67.5344 555.569C13.4236 381.039 81.0309 188.837 231.972 87.3595C232.574 86.9555 233.161 86.5608 233.771 86.1629C389.078 -17.0661 596.036 -3.18398 737.062 119.91C750.245 131.423 751.608 151.456 740.097 164.643C738.229 166.784 736.132 168.609 733.888 170.125Z" fill="#EF487F"/>
<path d="M724.409 331.874C723.441 332.523 722.422 333.126 721.367 333.681C705.856 341.797 686.699 335.782 678.591 320.269C631.65 230.481 532.666 178.912 432.278 191.964C331.445 205.084 248.838 280.64 226.755 380.006C222.955 397.097 206.03 407.871 188.933 404.064C171.843 400.266 161.068 383.328 164.875 366.239C192.727 240.947 296.898 145.64 424.102 129.095C550.727 112.633 675.574 177.657 734.779 290.903C742.341 305.36 737.634 322.974 724.409 331.874Z" fill="#F36C21"/>
<path d="M644.566 449.336C640.183 452.284 635.013 454.169 629.377 454.611C611.916 455.977 596.662 442.936 595.293 425.486C591.318 374.597 558.753 329.555 512.345 310.742C461.882 290.277 404.19 302.708 365.449 342.463C353.209 355.023 333.152 355.229 320.622 342.993C308.099 330.771 307.854 310.701 320.089 298.166C376.911 239.949 461.728 221.815 536.17 251.984C604.646 279.753 652.659 345.906 658.505 420.535C659.43 432.349 653.751 443.16 644.566 449.336Z" fill="#FCB715"/>
</svg>