<svg width="18" height="18" viewBox="0 0 18 18" fill="none" xmlns="http://www.w3.org/2000/svg">
<path d="M16.3521 6.66918L6.82076 16.2479C6.32507 16.7304 5.6736 17 4.9938 17H1.66563C1.48152 17 1.31157 16.929 1.18411 16.8013C1.05665 16.6736 1 16.5033 1 16.3188L1.08497 12.9557C1.09914 12.2887 1.36822 11.6643 1.83558 11.196L8.59106 4.42705C8.70436 4.31353 8.90263 4.31353 9.01593 4.42705L11.3811 6.78271C11.5368 6.9388 11.7634 7.03814 12.0042 7.03814C12.5282 7.03814 12.9389 6.61242 12.9389 6.10155C12.9389 5.84612 12.8398 5.61907 12.684 5.44878C12.6415 5.39202 10.3897 3.14989 10.3897 3.14989C10.2481 3.00798 10.2481 2.76674 10.3897 2.62483L11.3386 1.65987C12.2166 0.780044 13.6329 0.780044 14.511 1.65987L16.3521 3.50466C17.216 4.37029 17.216 5.78936 16.3521 6.66918" stroke="black"/>
</svg>
