<?xml version="1.0" encoding="utf-8"?>
<!-- Generator: Adobe Illustrator 25.1.0, SVG Export Plug-In . SVG Version: 6.00 Build 0)  -->
<svg version="1.1" id="Layer_1" xmlns="http://www.w3.org/2000/svg" xmlns:xlink="http://www.w3.org/1999/xlink" x="0px" y="0px"
	 viewBox="0 0 841.89 595.28" style="enable-background:new 0 0 841.89 595.28;" xml:space="preserve">
<style type="text/css">
	.st0{fill:#58595B;}
	.st1{fill:#F44C7F;}
	.st2{fill:#FF6C0E;}
	.st3{fill:#FFB600;}
	.st4{fill:#DA3E26;}
</style>
<g>
	<path class="st0" d="M340.26,192.95c-2.03,0.02-3.86,0.49-5.5,1.41c-1.62,0.92-2.92,2.18-3.88,3.75c-0.98,1.58-1.47,3.35-1.49,5.33
		c0.02,1.94,0.51,3.69,1.49,5.25c0.96,1.56,2.26,2.79,3.88,3.71c1.64,0.92,3.47,1.39,5.5,1.41c1.94-0.02,3.73-0.49,5.36-1.41
		c1.62-0.91,2.9-2.15,3.88-3.71c0.98-1.56,1.5-3.31,1.52-5.25c-0.02-1.99-0.54-3.75-1.52-5.33c-0.98-1.58-2.26-2.84-3.88-3.75
		C344,193.44,342.2,192.97,340.26,192.95z"/>
	<path class="st1" d="M430.85,185.53c-3.33,0-6.38-2.22-7.28-5.59c-9.74-36.45-42.78-62.04-80.34-62.24c-0.14,0-0.29,0-0.44,0
		c-36.64,0-69.54,24.54-80.11,59.82c-1.19,3.99-5.4,6.26-9.38,5.06c-3.99-1.19-6.25-5.4-5.06-9.38
		c12.47-41.61,51.31-70.57,94.55-70.57c0.17,0,0.34,0,0.51,0c44.34,0.23,83.33,30.43,94.83,73.42c1.07,4.02-1.31,8.15-5.33,9.23
		C432.16,185.44,431.5,185.53,430.85,185.53z"/>
	<path class="st2" d="M407.53,216.19c-0.28,0-0.56-0.02-0.84-0.05c-4.14-0.46-7.12-4.18-6.66-8.32
		c2.65-23.94-10.04-47.25-31.58-57.99c-21.64-10.79-47.96-6.84-65.49,9.84c-3.02,2.87-7.79,2.75-10.65-0.27
		c-2.87-3.02-2.75-7.79,0.27-10.65c22.12-21.03,55.31-26.01,82.61-12.4c27.17,13.55,43.18,42.94,39.84,73.14
		C414.58,213.33,411.32,216.18,407.53,216.19z"/>
	<path class="st3" d="M376.19,228.77c-1.25,0-2.53-0.31-3.7-0.97c-3.63-2.05-4.91-6.64-2.86-10.27c5.96-10.57,5.51-23.77-1.15-33.64
		c-7.24-10.73-20.27-15.93-33.19-13.23c-4.08,0.85-8.07-1.77-8.92-5.84c-0.85-4.07,1.77-8.07,5.84-8.92
		c18.94-3.95,38.08,3.72,48.76,19.55c9.83,14.56,10.53,33.99,1.78,49.48C381.38,227.39,378.83,228.77,376.19,228.77z"/>
	<g>
		<path class="st0" d="M220.14,412.4v-26.38h10.7c2.71,0,4.9,0.76,6.57,2.28c1.67,1.52,2.51,3.56,2.51,6.12
			c0,1.91-0.5,3.53-1.49,4.86c-0.99,1.33-2.36,2.27-4.09,2.83l5.62,10.29h-5.5l-5.31-9.8h-3.92v9.8H220.14z M225.22,398.19h5.2
			c2.89,0,4.33-1.26,4.33-3.77c0-2.54-1.45-3.81-4.33-3.81h-5.2V398.19z"/>
		<path class="st0" d="M256.69,405.5l3.43,3.02c-2.04,2.97-4.79,4.45-8.25,4.45c-2.79,0-5.06-0.96-6.82-2.88
			c-1.76-1.92-2.64-4.48-2.64-7.67s0.87-5.75,2.62-7.67c1.74-1.92,3.95-2.88,6.61-2.88c2.66,0,4.85,0.96,6.57,2.88
			c1.72,1.92,2.58,4.48,2.58,7.67v1.47h-13.41c0.08,1.53,0.5,2.71,1.26,3.52c0.77,0.82,1.82,1.22,3.15,1.22
			c1.13,0,2.07-0.28,2.81-0.85C255.34,407.22,256.03,406.46,256.69,405.5z M247.38,400.23h8.67c-0.13-1.28-0.57-2.28-1.32-3
			c-0.75-0.72-1.78-1.07-3.09-1.07c-1.21,0-2.19,0.39-2.96,1.17C247.91,398.11,247.48,399.07,247.38,400.23z"/>
		<path class="st0" d="M263.25,405.8l4.41-1.13c0.35,2.79,1.85,4.18,4.48,4.18c1.21,0,2.17-0.19,2.88-0.58
			c0.72-0.39,1.07-0.93,1.07-1.64c0-0.58-0.28-1.01-0.83-1.3c-0.55-0.29-1.71-0.68-3.47-1.19c-0.48-0.13-0.84-0.23-1.09-0.3
			c-2.31-0.66-4.01-1.43-5.09-2.32c-1.08-0.89-1.62-2.08-1.62-3.56c0-1.66,0.67-3.09,2.02-4.3c1.34-1.2,3.18-1.81,5.52-1.81
			c4.47,0,7.27,1.96,8.41,5.88l-4.07,1.24c-0.35-0.95-0.85-1.71-1.49-2.26c-0.64-0.55-1.58-0.83-2.81-0.83
			c-0.96,0-1.71,0.18-2.28,0.54c-0.56,0.37-0.85,0.8-0.85,1.3c0,0.55,0.33,0.99,1,1.3c0.66,0.31,2.33,0.85,4.99,1.6
			c2.34,0.63,3.93,1.43,4.77,2.39c0.84,0.97,1.26,2.21,1.26,3.71c0,1.61-0.7,3.05-2.09,4.32c-1.39,1.27-3.41,1.9-6.05,1.9
			c-2.76,0-4.89-0.7-6.39-2.09C264.44,409.48,263.55,407.79,263.25,405.8z"/>
		<path class="st0" d="M297.2,405.5l3.43,3.02c-2.03,2.97-4.79,4.45-8.25,4.45c-2.79,0-5.06-0.96-6.82-2.88
			c-1.76-1.92-2.64-4.48-2.64-7.67s0.87-5.75,2.62-7.67c1.75-1.92,3.95-2.88,6.61-2.88c2.66,0,4.86,0.96,6.57,2.88
			c1.72,1.92,2.58,4.48,2.58,7.67v1.47h-13.42c0.08,1.53,0.5,2.71,1.26,3.52c0.77,0.82,1.82,1.22,3.15,1.22
			c1.13,0,2.07-0.28,2.81-0.85C295.85,407.22,296.54,406.46,297.2,405.5z M287.89,400.23h8.67c-0.13-1.28-0.56-2.28-1.32-3
			c-0.76-0.72-1.79-1.07-3.09-1.07c-1.2,0-2.19,0.39-2.96,1.17C288.42,398.11,287.99,399.07,287.89,400.23z"/>
		<path class="st0" d="M316.64,412.4v-1.92h-0.08c-0.05,0.08-0.11,0.17-0.19,0.28c-0.08,0.11-0.26,0.31-0.57,0.58
			c-0.3,0.28-0.64,0.53-1.02,0.75c-0.38,0.23-0.89,0.43-1.55,0.6c-0.66,0.18-1.36,0.26-2.11,0.26c-2.41,0-4.21-0.57-5.41-1.71
			c-1.19-1.14-1.79-2.54-1.79-4.2c0-1.73,0.52-3.05,1.55-3.96c1.03-0.9,2.77-1.66,5.24-2.26c2.28-0.55,3.72-0.99,4.3-1.32
			c0.58-0.33,0.87-0.79,0.87-1.39s-0.28-1.11-0.85-1.51c-0.56-0.4-1.41-0.6-2.54-0.6c-1.33,0-2.29,0.29-2.87,0.89
			c-0.58,0.59-1.03,1.39-1.36,2.39l-4.07-1.7c0.48-1.68,1.41-3.06,2.79-4.13c1.38-1.07,3.19-1.6,5.43-1.6
			c2.44,0,4.43,0.64,5.99,1.92c1.56,1.28,2.34,3.27,2.34,5.95v12.66H316.64z M311.71,404.22c-1.26,0.3-2.08,0.66-2.47,1.07
			c-0.39,0.41-0.58,0.89-0.58,1.41c0,1.36,0.98,2.03,2.94,2.03c1.48,0,2.59-0.28,3.33-0.85c0.74-0.57,1.11-1.26,1.11-2.09v-3.47
			h-0.07c-0.1,0.2-0.21,0.36-0.32,0.47s-0.5,0.3-1.15,0.57C313.84,403.64,312.91,403.92,311.71,404.22z"/>
		<path class="st0" d="M325.65,412.4v-19.97h4.63v2.11h0.08c0.38-0.76,0.93-1.36,1.68-1.81c0.74-0.45,1.55-0.68,2.43-0.68
			c0.63,0,1.23,0.13,1.81,0.38l-0.75,4.75c-0.55-0.2-1.07-0.3-1.54-0.3c-2.29,0-3.43,1.52-3.43,4.56v10.97H325.65z"/>
		<path class="st0" d="M351.46,404.33l4.64,1.21c-0.45,2.39-1.43,4.22-2.94,5.5c-1.51,1.28-3.41,1.92-5.69,1.92
			c-2.71,0-4.94-0.93-6.69-2.79c-1.75-1.86-2.62-4.45-2.62-7.76c0-3.29,0.9-5.87,2.7-7.75c1.8-1.87,4.01-2.81,6.65-2.81
			c2.23,0,4.11,0.65,5.61,1.96c1.51,1.31,2.44,3.05,2.79,5.24l-4.56,0.87c-0.48-2.44-1.76-3.66-3.84-3.66
			c-1.38,0-2.48,0.52-3.3,1.57c-0.82,1.04-1.23,2.57-1.23,4.58s0.4,3.54,1.21,4.58c0.8,1.04,1.91,1.57,3.32,1.57
			C349.72,408.56,351.03,407.15,351.46,404.33z"/>
		<path class="st0" d="M359.86,412.4v-27.51h4.9v9.46h0.08c0.4-0.65,1.07-1.23,2-1.73c0.93-0.5,1.88-0.75,2.86-0.75
			c2.14,0,3.83,0.65,5.09,1.96c1.26,1.31,1.88,3.06,1.88,5.27v13.3h-4.9v-12.21c0-1.11-0.29-2.02-0.89-2.73
			c-0.59-0.72-1.47-1.07-2.66-1.07c-1.13,0-1.99,0.32-2.58,0.96c-0.59,0.64-0.89,1.48-0.89,2.5v12.55H359.86z"/>
		<path class="st0" d="M402.56,412.4v-1.92h-0.08c-0.05,0.08-0.11,0.17-0.19,0.28c-0.08,0.11-0.26,0.31-0.57,0.58
			c-0.3,0.28-0.64,0.53-1.02,0.75c-0.38,0.23-0.89,0.43-1.55,0.6c-0.66,0.18-1.36,0.26-2.11,0.26c-2.41,0-4.21-0.57-5.41-1.71
			c-1.19-1.14-1.79-2.54-1.79-4.2c0-1.73,0.52-3.05,1.55-3.96c1.03-0.9,2.77-1.66,5.24-2.26c2.28-0.55,3.72-0.99,4.3-1.32
			c0.58-0.33,0.87-0.79,0.87-1.39s-0.28-1.11-0.85-1.51c-0.56-0.4-1.41-0.6-2.54-0.6c-1.33,0-2.29,0.29-2.87,0.89
			c-0.58,0.59-1.03,1.39-1.36,2.39l-4.07-1.7c0.48-1.68,1.41-3.06,2.79-4.13c1.38-1.07,3.19-1.6,5.43-1.6
			c2.44,0,4.43,0.64,5.99,1.92c1.56,1.28,2.34,3.27,2.34,5.95v12.66H402.56z M397.62,404.22c-1.26,0.3-2.08,0.66-2.47,1.07
			c-0.39,0.41-0.58,0.89-0.58,1.41c0,1.36,0.98,2.03,2.94,2.03c1.48,0,2.59-0.28,3.33-0.85c0.74-0.57,1.11-1.26,1.11-2.09v-3.47
			h-0.07c-0.1,0.2-0.21,0.36-0.32,0.47s-0.5,0.3-1.15,0.57C399.76,403.64,398.83,403.92,397.62,404.22z"/>
		<path class="st0" d="M411.57,412.4v-19.97h4.71v1.92h0.08c0.55-0.7,1.31-1.29,2.26-1.77c0.95-0.48,1.96-0.72,3.02-0.72
			c2.21,0,3.95,0.66,5.2,1.98c1.26,1.32,1.88,3.15,1.88,5.48v13.08h-4.9v-11.87c0-1.38-0.26-2.42-0.79-3.11
			c-0.53-0.69-1.43-1.04-2.71-1.04c-1.2,0-2.15,0.35-2.83,1.04c-0.68,0.69-1.02,1.61-1.02,2.77v12.21H411.57z"/>
		<path class="st0" d="M446.5,412.4v-1.92h-0.08c-0.13,0.18-0.31,0.4-0.55,0.68c-0.24,0.28-0.82,0.65-1.73,1.11
			c-0.92,0.47-1.92,0.7-3,0.7c-2.64,0-4.74-0.95-6.31-2.87c-1.57-1.91-2.36-4.47-2.36-7.69c0-3.24,0.85-5.81,2.56-7.71
			c1.71-1.9,3.72-2.85,6.03-2.85c1.05,0,2,0.21,2.85,0.62c0.84,0.41,1.41,0.82,1.71,1.23l0.49,0.64h0.08v-9.46h4.9v27.51H446.5z
			 M446.2,404.22v-3.66c0-1.2-0.38-2.22-1.15-3.05c-0.77-0.83-1.82-1.24-3.15-1.24c-1.43,0-2.54,0.52-3.34,1.55
			c-0.79,1.03-1.18,2.56-1.18,4.6c0,2.01,0.39,3.54,1.18,4.58c0.79,1.04,1.9,1.57,3.34,1.57c1.33,0,2.38-0.42,3.15-1.26
			C445.81,406.45,446.2,405.43,446.2,404.22z"/>
		<path class="st0" d="M466.36,412.4v-26.38h5.09v26.38H466.36z"/>
		<path class="st0" d="M477.29,412.4v-19.97H482v1.92h0.08c0.55-0.7,1.31-1.29,2.26-1.77c0.95-0.48,1.96-0.72,3.02-0.72
			c2.21,0,3.95,0.66,5.2,1.98c1.26,1.32,1.88,3.15,1.88,5.48v13.08h-4.9v-11.87c0-1.38-0.26-2.42-0.79-3.11
			c-0.53-0.69-1.43-1.04-2.71-1.04c-1.2,0-2.15,0.35-2.83,1.04c-0.68,0.69-1.02,1.61-1.02,2.77v12.21H477.29z"/>
		<path class="st0" d="M499.52,412.4v-19.97h4.71v1.92h0.08c0.55-0.7,1.31-1.29,2.26-1.77c0.95-0.48,1.96-0.72,3.02-0.72
			c2.21,0,3.94,0.66,5.2,1.98c1.26,1.32,1.88,3.15,1.88,5.48v13.08h-4.9v-11.87c0-1.38-0.26-2.42-0.79-3.11
			c-0.53-0.69-1.43-1.04-2.71-1.04c-1.2,0-2.15,0.35-2.83,1.04c-0.68,0.69-1.02,1.61-1.02,2.77v12.21H499.52z"/>
		<path class="st0" d="M536.49,410.18c-1.76,1.86-3.99,2.79-6.71,2.79c-2.71,0-4.95-0.93-6.71-2.79c-1.76-1.86-2.64-4.45-2.64-7.76
			c0-3.27,0.9-5.84,2.71-7.73c1.81-1.88,4.02-2.83,6.63-2.83c2.61,0,4.82,0.94,6.63,2.83c1.81,1.88,2.71,4.46,2.71,7.73
			C539.12,405.73,538.24,408.32,536.49,410.18z M526.46,406.97c0.8,1.05,1.91,1.58,3.32,1.58c1.41,0,2.51-0.53,3.32-1.6
			c0.8-1.07,1.2-2.58,1.2-4.54s-0.41-3.47-1.22-4.54c-0.82-1.07-1.92-1.6-3.3-1.6c-1.38,0-2.48,0.53-3.3,1.58
			c-0.82,1.05-1.22,2.58-1.22,4.56S525.66,405.92,526.46,406.97z"/>
		<path class="st0" d="M548.06,412.4l-7.99-19.97h5.09l4.97,12.85h0.08l4.98-12.85h5.01l-7.99,19.97H548.06z"/>
		<path class="st0" d="M573.83,412.4v-1.92h-0.08c-0.05,0.08-0.11,0.17-0.19,0.28c-0.08,0.11-0.26,0.31-0.57,0.58
			c-0.3,0.28-0.64,0.53-1.02,0.75c-0.38,0.23-0.89,0.43-1.55,0.6c-0.66,0.18-1.36,0.26-2.11,0.26c-2.41,0-4.21-0.57-5.41-1.71
			c-1.19-1.14-1.79-2.54-1.79-4.2c0-1.73,0.52-3.05,1.55-3.96c1.03-0.9,2.77-1.66,5.24-2.26c2.28-0.55,3.72-0.99,4.3-1.32
			c0.58-0.33,0.87-0.79,0.87-1.39s-0.28-1.11-0.85-1.51c-0.56-0.4-1.41-0.6-2.54-0.6c-1.33,0-2.29,0.29-2.87,0.89
			c-0.58,0.59-1.03,1.39-1.36,2.39l-4.07-1.7c0.48-1.68,1.41-3.06,2.79-4.13c1.38-1.07,3.19-1.6,5.43-1.6
			c2.44,0,4.43,0.64,5.99,1.92c1.56,1.28,2.34,3.27,2.34,5.95v12.66H573.83z M568.89,404.22c-1.26,0.3-2.08,0.66-2.47,1.07
			c-0.39,0.41-0.58,0.89-0.58,1.41c0,1.36,0.98,2.03,2.94,2.03c1.48,0,2.59-0.28,3.33-0.85c0.74-0.57,1.11-1.26,1.11-2.09v-3.47
			h-0.07c-0.1,0.2-0.21,0.36-0.32,0.47s-0.5,0.3-1.15,0.57C571.03,403.64,570.1,403.92,568.89,404.22z"/>
		<path class="st0" d="M583.85,405.28v-8.7h-3.09v-4.15h3.2v-4.9h4.63v4.9h5.05v4.15h-4.97v8.25c0,1.05,0.17,1.8,0.53,2.22
			c0.35,0.43,1.07,0.64,2.15,0.64h1.62v4.71h-2.07c-2.69,0-4.53-0.56-5.54-1.7C584.36,409.57,583.85,407.76,583.85,405.28z"/>
		<path class="st0" d="M597.42,389.53v-4.64h4.9v4.64H597.42z M597.42,412.4v-19.97h4.9v19.97H597.42z"/>
		<path class="st0" d="M622.33,410.18c-1.76,1.86-3.99,2.79-6.71,2.79c-2.71,0-4.95-0.93-6.71-2.79c-1.76-1.86-2.64-4.45-2.64-7.76
			c0-3.27,0.91-5.84,2.71-7.73c1.81-1.88,4.02-2.83,6.63-2.83c2.61,0,4.82,0.94,6.63,2.83c1.81,1.88,2.71,4.46,2.71,7.73
			C624.97,405.73,624.09,408.32,622.33,410.18z M612.3,406.97c0.8,1.05,1.91,1.58,3.32,1.58c1.41,0,2.51-0.53,3.31-1.6
			c0.8-1.07,1.21-2.58,1.21-4.54s-0.41-3.47-1.22-4.54c-0.82-1.07-1.92-1.6-3.3-1.6c-1.38,0-2.48,0.53-3.3,1.58
			c-0.82,1.05-1.23,2.58-1.23,4.56S611.5,405.92,612.3,406.97z"/>
		<path class="st0" d="M628.92,412.4v-19.97h4.71v1.92h0.08c0.55-0.7,1.31-1.29,2.26-1.77c0.95-0.48,1.96-0.72,3.02-0.72
			c2.21,0,3.95,0.66,5.2,1.98c1.26,1.32,1.88,3.15,1.88,5.48v13.08h-4.9v-11.87c0-1.38-0.26-2.42-0.79-3.11
			c-0.53-0.69-1.43-1.04-2.71-1.04c-1.2,0-2.15,0.35-2.83,1.04c-0.68,0.69-1.02,1.61-1.02,2.77v12.21H628.92z"/>
	</g>
	<g>
		<path class="st4" d="M220.52,235.85c0-4.68,2.43-7.29,7.11-7.29h33.3c12.14,0,18.21,1.04,23.41,3.3
			c12.49,5.2,20.64,16.99,20.64,33.64c0,14.57-7.63,28.44-20.46,33.64v0.35c0,0,1.56,1.91,3.99,6.42l20.29,37.11
			c2.95,5.03,0.69,8.67-5.03,8.67h-9.36c-3.99,0-6.59-1.56-8.5-5.03l-21.68-40.93h-21.5v38.67c0,4.86-2.43,7.29-7.11,7.29h-7.98
			c-4.68,0-7.11-2.43-7.11-7.29V235.85z M262.83,286.31c11.96,0,19.42-7.46,19.42-19.6c0-7.8-2.95-14.04-9.71-16.82
			c-2.95-1.39-6.76-2.08-13.35-2.08h-16.48v38.5H262.83z"/>
		<path class="st4" d="M329.07,235.85c0-4.68,2.43-7.29,7.11-7.29h7.98c4.68,0,7.11,2.6,7.11,7.29V344.4c0,4.86-2.43,7.29-7.11,7.29
			h-7.98c-4.68,0-7.11-2.43-7.11-7.29V235.85z"/>
		<path class="st4" d="M374.33,331.22l3.82-5.55c2.77-3.81,5.72-3.99,10.06-1.56c3.99,2.77,12.83,9.02,24.97,9.02
			c11.45,0,18.38-5.72,18.38-14.05c0-23.41-57.4-18.55-57.4-56.88c0-21.68,18.04-35.73,41.45-35.73c14.57,0,26.53,5.55,31.73,9.37
			c3.82,2.77,4.34,6.07,2.26,9.89l-3.12,5.72c-2.6,5.03-6.24,4.34-9.88,2.43c-5.03-2.95-11.79-6.76-21.33-6.76
			c-11.44,0-18.73,5.55-18.73,13.87c0,23.06,57.4,17.17,57.4,56.36c0,19.95-14.91,36.42-40.75,36.42c-17.51,0-31.73-7.8-37.8-12.49
			C372.6,338.85,370.86,335.91,374.33,331.22z"/>
		<path class="st4" d="M474.91,235.85c0-4.68,2.43-7.29,7.11-7.29h59.31c4.68,0,7.29,2.6,7.29,7.29v4.86c0,4.68-2.6,7.11-7.29,7.11
			h-44.22v32.25h34.34c4.68,0,7.28,2.43,7.28,7.11v4.86c0,4.86-2.6,7.28-7.28,7.28h-34.34v33.13h47c4.68,0,7.29,2.43,7.29,7.11v4.86
			c0,4.86-2.6,7.29-7.29,7.29h-62.08c-4.68,0-7.11-2.43-7.11-7.29V235.85z"/>
	</g>
</g>
</svg>
