<svg width="46" height="46" viewBox="0 0 46 46" fill="none" xmlns="http://www.w3.org/2000/svg">
<path d="M38.3238 12.8187C40.0419 11.7916 41.3275 10.1742 41.9405 8.26856C40.326 9.22651 38.5596 9.90132 36.7176 10.2638C34.1638 7.56232 30.1176 6.9049 26.8399 8.6589C23.5622 10.4129 21.8644 14.1441 22.6953 17.7676C16.082 17.4355 9.92063 14.3116 5.74428 9.17323C3.56472 12.9326 4.67852 17.7384 8.28961 20.1557C6.98381 20.1137 5.70696 19.7602 4.56553 19.1246C4.56553 19.1591 4.56553 19.1936 4.56553 19.2281C4.56629 23.1441 7.32624 26.5173 11.1646 27.2934C9.9534 27.6229 8.68293 27.6714 7.45011 27.4352C8.52958 30.7842 11.6161 33.0784 15.134 33.1469C12.2204 35.4337 8.62211 36.6739 4.9182 36.6678C4.26168 36.6688 3.60568 36.631 2.95361 36.5547C6.71486 38.9717 11.0925 40.2546 15.5634 40.2501C21.7834 40.2928 27.7611 37.8406 32.1593 33.4421C36.5574 29.0436 39.0091 23.0657 38.9659 16.8456C38.9659 16.4891 38.9576 16.1346 38.9409 15.7819C40.5518 14.6177 41.9421 13.1755 43.0464 11.5231C41.5457 12.1883 39.9538 12.625 38.3238 12.8187Z" fill="black"/>
</svg>
