<svg width="20" height="20" viewBox="0 0 20 20" fill="none" xmlns="http://www.w3.org/2000/svg">
<path d="M9.99512 14.6768V12.1398" stroke="#C4C4C4" stroke-width="1.5" stroke-linecap="round" stroke-linejoin="round"/>
<path fill-rule="evenodd" clip-rule="evenodd" d="M16.1899 3.3302C17.8799 3.3302 19.2399 4.7002 19.2399 6.3902V9.8302C16.7799 11.2702 13.5299 12.1402 9.98991 12.1402C6.44991 12.1402 3.20991 11.2702 0.749908 9.8302V6.3802C0.749908 4.6902 2.11991 3.3302 3.80991 3.3302H16.1899Z" stroke="#C4C4C4" stroke-width="1.5" stroke-linecap="round" stroke-linejoin="round"/>
<path d="M13.4951 3.32576V2.95976C13.4951 1.73976 12.5051 0.749756 11.2851 0.749756H8.70512C7.48512 0.749756 6.49512 1.73976 6.49512 2.95976V3.32576" stroke="#C4C4C4" stroke-width="1.5" stroke-linecap="round" stroke-linejoin="round"/>
<path d="M0.774414 13.4829L0.963414 15.9919C1.09141 17.6829 2.50041 18.9899 4.19541 18.9899H15.7944C17.4894 18.9899 18.8984 17.6829 19.0264 15.9919L19.2154 13.4829" stroke="#C4C4C4" stroke-width="1.5" stroke-linecap="round" stroke-linejoin="round"/>
</svg>
