<svg width="20" height="20"                                                                                           viewBox="0 0 20 20" fill="none" xmlns="http://www.w3.org/2000/svg">
  <path
    d="M17.9009 19.9167L11.1477 13.1648C8.0931 15.1799 4.00912 14.5566 1.69473 11.722C-0.619654 8.8875 -0.413595 4.76136 2.17169 2.17151C4.76109 -0.414765 8.88769 -0.621717 11.7228 1.69251C14.558 4.00675 15.1817 8.09119 13.1664 11.1461L19.9169 17.9008L17.9009 19.9167ZM7.21502 2.9365C5.17396 2.93521 3.4162 4.37587 3.01671 6.37746C2.61722 8.37905 3.68725 10.3841 5.57243 11.1664C7.45761 11.9488 9.6329 11.2905 10.768 9.59415C11.9031 7.89783 11.6819 5.63592 10.2396 4.19168C9.43954 3.38608 8.3504 2.9341 7.21502 2.9365Z"
    fill="black" />
</svg>
